Coordinates
version=1
nRows=8
nColumns=63
inDegrees=yes

Units are S.I. units (second, meters, Newtons, ...)
If the header above contains a line with 'inDegrees', this indicates whether rotational values are in degrees (yes) or radians (no).

endheader
time	pelvis_tilt	pelvis_list	pelvis_rotation	pelvis_tx	pelvis_ty	pelvis_tz	hip_flexion_r	hip_adduction_r	hip_rotation_r	knee_angle_r	knee_angle_r_beta	ankle_angle_r	subtalar_angle_r	mtp_angle_r	hip_flexion_l	hip_adduction_l	hip_rotation_l	knee_angle_l	knee_angle_l_beta	ankle_angle_l	subtalar_angle_l	mtp_angle_l	L5_S1_Flex_Ext	L5_S1_Lat_Bending	L5_S1_axial_rotation	L4_L5_Flex_Ext	L4_L5_Lat_Bending	L4_L5_axial_rotation	L3_L4_Flex_Ext	L3_L4_Lat_Bending	L3_L4_axial_rotation	L2_L3_Flex_Ext	L2_L3_Lat_Bending	L2_L3_axial_rotation	L1_L2_Flex_Ext	L1_L2_Lat_Bending	L1_L2_axial_rotation	L1_T12_Flex_Ext	L1_T12_Lat_Bending	L1_T12_axial_rotation	Abs_r3	Abs_r2	Abs_r1	Abs_t1	Abs_t2	neck_flexion	neck_bending	neck_rotation	arm_flex_r	arm_add_r	arm_rot_r	elbow_flex_r	pro_sup_r	wrist_flex_r	wrist_dev_r	arm_flex_l	arm_add_l	arm_rot_l	elbow_flex_l	pro_sup_l	wrist_flex_l	wrist_dev_l
      0.00000000	     -1.28502652	     -2.83537758	     99.23726588	      0.15110746	      0.94826185	      0.48808624	      3.33437451	     -1.76678782	    -14.82200105	      6.58803791	      0.11498295	     35.64585033	     14.35223010	      0.00000000	      1.95854263	      1.58505639	     14.05297944	      0.86605653	      0.01511554	     29.85605856	     -6.30530192	      0.00000000	      0.60787109	     -0.23599140	     -1.27829675	      1.12887740	     -0.31386856	     -1.35819030	      0.99867142	     -0.57378949	     -1.35819030	      0.69473587	     -0.57378949	     -1.11850966	      0.56446910	     -0.48123366	     -1.03861611	      0.34733754	     -0.36555068	     -0.95872256	      4.34196242	     -2.66958191	     -7.10950303	      0.00000000	      0.00000000	     28.33497758	     -0.27360513	      0.72015175	     13.82465900	     -1.11545878	     69.83329043	     28.81789157	     85.87929780	     -0.58724190	    -20.68555483	     16.82323261	     -1.68868072	     69.06100909	     26.13321007	     78.48038532	      6.29966256	    -17.69618832
      0.02272727	     -1.39386507	     -2.83499274	     99.56989016	      0.15063869	      0.94827682	      0.48744617	      2.92991692	     -1.85462593	    -15.04090429	      6.29004616	      0.10978202	     35.02756242	     13.69711907	      0.00000000	      1.91225700	      1.81223443	     15.10784274	      0.84847614	      0.01480870	     28.81778405	     -8.01811253	      0.00000000	      0.61282785	     -0.26110063	     -1.27981284	      1.13808259	     -0.34726383	     -1.35980114	      1.00681487	     -0.63484006	     -1.35980114	      0.70040094	     -0.63484006	     -1.11983624	      0.56907194	     -0.53243640	     -1.03984793	      0.35016983	     -0.40444487	     -0.95985963	      4.37736802	     -2.95362251	     -7.11793508	      0.00000000	      0.00000000	     28.34062203	     -0.20095801	     -0.01350264	     12.82130855	     -1.31327949	     67.62206094	     29.38127219	     84.35377912	     -0.08045388	    -19.17552234	     15.64239324	     -1.72642362	     66.16451822	     27.06422801	     76.00243327	      7.34236576	    -15.83726247
      0.04545455	     -1.51828871	     -2.75533876	     99.71821926	      0.15034206	      0.94847527	      0.48689217	      2.50216403	     -1.93442233	    -15.13505542	      5.92543029	      0.10341827	     34.51567198	     13.33832144	      0.00000000	      1.77229856	      2.02800924	     15.65097403	      0.79747076	      0.01391849	     28.14261688	     -9.21213193	      0.00000000	      0.60747665	     -0.27524156	     -1.27459676	      1.12814489	     -0.36607127	     -1.35425906	      0.99802339	     -0.66922232	     -1.35425906	      0.69428507	     -0.66922232	     -1.11527217	      0.56410282	     -0.56127258	     -1.03560987	      0.34711216	     -0.42634917	     -0.95594757	      4.33914499	     -3.11358755	     -7.08892483	      0.00000000	      0.00000000	     28.33926150	     -0.02481277	     -0.03284955	     12.20878715	     -1.34017546	     66.23888805	     29.49719673	     83.44185073	     -0.27711910	    -18.50005676	     14.83051570	     -1.67613249	     64.51871873	     27.41476296	     74.89531471	      7.13735726	    -15.73752458
      0.06818182	     -1.30050302	     -2.60848196	    100.31530780	      0.14945565	      0.94865921	      0.48643903	      1.84621753	     -1.48826581	    -13.64765009	      5.01277989	      0.08748951	     33.53997631	     10.58922751	      0.00000000	      1.64527046	      1.88794523	     18.88882437	      0.71359156	      0.01245452	     27.03912948	    -13.48121980	      0.00000000	      0.60056274	     -0.24496284	     -1.36719459	      1.11530506	     -0.32580058	     -1.45264426	      0.98666452	     -0.59560266	     -1.45264426	      0.68638315	     -0.59560266	     -1.19629527	      0.55768256	     -0.49952823	     -1.11084561	      0.34316155	     -0.37944744	     -1.02539595	      4.28975959	     -2.77106868	     -7.60392617	      0.00000000	      0.00000000	     28.33680247	      0.03154088	      0.21182016	     11.72640114	     -1.50409580	     64.50786726	     29.73387676	     83.29960035	      0.54684142	    -17.68118687	     14.20719024	     -1.60216229	     62.78021179	     27.91303113	     75.21570101	      7.21993461	    -14.72164075
      0.09090909	     -1.11770919	     -2.55630003	    100.22343074	      0.14928251	      0.94886010	      0.48625586	      1.59544563	     -1.20690991	    -12.72753648	      4.48813644	      0.07833276	     32.95340750	      9.55068630	      0.00000000	      1.65418633	      1.76048683	     17.30201209	      0.72872491	      0.01271865	     27.59226672	    -11.71707404	      0.00000000	      0.60881586	     -0.20876945	     -1.34613237	      1.13063193	     -0.27766337	     -1.43026565	      1.00022357	     -0.50760204	     -1.43026565	      0.69581564	     -0.50760204	     -1.17786583	      0.56534640	     -0.42572266	     -1.09373255	      0.34787738	     -0.32338388	     -1.00959928	      4.34871078	     -2.36164178	     -7.48678442	      0.00000000	      0.00000000	     28.32851383	      0.08858677	      0.77603645	     11.91756647	     -1.64981293	     65.41388627	     29.42410650	     81.92874673	      0.21529292	    -18.09623287	     14.29951054	     -1.44829412	     64.00180512	     27.60563469	     74.47830756	      6.37620656	    -15.53325228
      0.11363636	     -0.95033858	     -2.25902984	    100.81528501	      0.14837654	      0.94930729	      0.48582897	      0.75893270	     -0.75757528	    -10.09753958	      3.35063783	      0.05847966	     31.89125706	      5.60250407	      0.00000000	      1.37325956	      1.61006924	     19.81732091	      0.64655662	      0.01128454	     26.99783622	    -14.78186020	      0.00000000	      0.58095472	     -0.17715818	     -1.44913261	      1.07889101	     -0.23562038	     -1.53970340	      0.95445051	     -0.43074239	     -1.53970340	      0.66397315	     -0.43074239	     -1.26799103	      0.53947455	     -0.36126096	     -1.17742025	      0.33195753	     -0.27441802	     -1.08684946	      4.14970147	     -2.00404874	     -8.05964084	      0.00000000	      0.00000000	     28.31809558	      0.11271807	      1.24491394	     11.73830845	     -1.70071222	     64.46122188	     29.40387477	     82.33445624	     -0.05692212	    -17.98022055	     14.09510872	     -1.37829642	     63.59000150	     27.65950202	     74.79531943	      5.72300984	    -15.77881434
      0.13636364	     -0.72026142	     -2.03755965	    101.11669133	      0.14775341	      0.94971071	      0.48528836	     -0.17090522	     -0.17889649	     -2.42818516	      1.65164847	      0.02882670	     29.42582525	     -4.63743920	      0.00000000	      1.18400243	      1.37901396	     19.86434103	      0.62323545	      0.01087751	     27.29905714	    -14.59209979	      0.00000000	      0.56728440	     -0.13493613	     -1.50683215	      1.05350386	     -0.17946505	     -1.60100916	      0.93199154	     -0.32808370	     -1.60100916	      0.64834934	     -0.32808370	     -1.31847813	      0.52678029	     -0.27516175	     -1.22430112	      0.32414631	     -0.20901606	     -1.13012411	      4.05205573	     -1.52642447	     -8.38054838	      0.00000000	      0.00000000	     28.30756370	      0.02285281	      1.82049451	     11.85722468	     -1.76699498	     64.91325980	     29.09523619	     82.24509460	     -0.49072797	    -18.37219110	     14.09330855	     -1.28453064	     63.61297490	     27.56467224	     76.12928919	      5.32620502	    -16.38226529
      0.15909091	     -0.43258425	     -1.94077853	    100.78013502	      0.14792404	      0.95003074	      0.48541988	     -0.09531751	      0.10688659	     -2.81521831	      1.60388437	      0.02799306	     29.70271686	     -3.28470179	      0.00000000	      1.15160652	      1.09993903	     18.93253835	      0.63521210	      0.01108654	     27.71669612	    -13.87447717	      0.00000000	      0.56210064	     -0.08681663	     -1.44972354	      1.04387710	     -0.11546612	     -1.54033126	      0.92347514	     -0.21108595	     -1.54033126	      0.64242482	     -0.21108595	     -1.26850809	      0.52196665	     -0.17703647	     -1.17790037	      0.32118431	     -0.13447896	     -1.08729265	      4.01502866	     -0.98208706	     -8.06292739	      0.00000000	      0.00000000	     28.30173948	      0.01996938	      2.31720443	     12.07025742	     -1.87764680	     65.42275501	     28.82655159	     82.53482679	     -0.74753222	    -18.71338521	     14.38814157	     -1.09769441	     64.52492106	     27.26796071	     76.86955732	      4.51540677	    -17.21062618
